<?xml version="1.0" encoding="UTF-8"?>
 <svg id="Layer_2" data-name="Layer 2" xmlns="http://www.w3.org/2000/svg" width="178" height="80" viewBox="0 0 178 80">
                                <g id="Layer_1-2" data-name="Layer 1">
                                    <g id="logoAndTextGroup" transform="translate(0, 15)">
                                        <text transform="translate(57.73 36.56)" fill="#fff" font-family="HelveticaNeue-Black, 'Helvetica Neue'" font-size="8.23" font-weight="800" id="svgDepartmentText" xml:space="preserve"><tspan x="0" y="0"></tspan></text>
                                        <g>
                                            <g>
                                                <polygon points="17.3 6.57 12.41 30.68 16.66 30.68 19.93 14.87 22.34 23.75 26.4 23.75 31.22 0 27.13 0 24.14 14.98 21.39 6.57 17.3 6.57" fill="#fff"/>
                                                <path d="M33.14,17.24l.41-2.01h1.83c1.14,0,1.98.57,1.89,2.04-.12,1.97-1.62,2.7-2.3,2.69h-2.39l.56-2.72-3.98-1.24-1.59,7.75h7.79c2.43,0,5.84-2.22,6.09-6.1.2-3.15-.73-4.02-2.1-5.03.98-.93,1.24-1.59,1.21-3.06-.04-1.74-1.25-2.96-2.59-3h-6.88l-.68,3.3,4.05.81.27-1.31h.97c.67.08.97.55.92,1.13-.1,1.1-.88,1.7-1.56,1.71h-.9l.31-1.53-4.05-.81-1.26,6.14,3.98,1.24Z" fill="#fff"/>
                                                <path d="M6.81,20.09c-1.01,0-2.4-.25-2.21-1.31l2.61-12.26H2.89S.53,17.64.06,19.84c-.47,2.2,1.65,4.35,5.84,4.35s6.91-2.07,7.41-4.44c.5-2.37,2.81-13.23,2.81-13.23h-4.35l-2.6,12.22c-.24.93-1.34,1.35-2.36,1.35" fill="#fff" fill-rule="evenodd"/>
                                                <path d="M54.97,6.3c-3.69-.47-11.12,1.16-12.75,8.84-1.63,7.68,5.29,9.62,9.03,9.06l1.08-5.09c-3.62.82-6.22-.35-5.44-4.01.77-3.62,4.08-5,7.08-4.31l1-4.48" fill="#fff" fill-rule="evenodd"/>
                                                <path d="M63.66,8.1l-.78,3.66c-.25,1.16-1.18,2.13-2.72,2.13s-1.96-.97-1.74-2.03l.8-3.76h.76l-.76,3.55c-.26,1.23.41,1.56,1.1,1.56s1.55-.32,1.81-1.55l.76-3.57h.76Z" fill="#fff"/>
                                                <path d="M68.61,8.1h.74l-1.2,5.64h-.86l-1.9-4.56h-.02l-.97,4.56h-.74l1.2-5.64h.9l1.85,4.56h.02l.97-4.56Z" fill="#fff"/>
                                                <path d="M70.22,13.74h-.76l1.2-5.64h.76l-1.2,5.64Z" fill="#fff"/>
                                                <path d="M76.35,8.1h.86l-3.26,5.64h-.81l-.86-5.64h.85l.59,4.81h.02l2.62-4.81Z" fill="#fff"/>
                                                <path d="M81.01,13.74h-4.17l1.2-5.64h4.11l-.14.68h-3.35l-.37,1.73h3.09l-.14.68h-3.09l-.4,1.89h3.4l-.14.68Z" fill="#fff"/>
                                                <path d="M83.93,8.75h1.9c.38,0,1,.07.81.94-.18.83-.8.97-1.35.97h-1.77l.41-1.92ZM83.38,11.32h1.85c.91,0,.89.54.79,1.01-.05.21-.2,1.07-.17,1.41h.93l.03-.13c-.21-.13-.22-.25-.16-.57l.17-1.02c.14-.79-.16-.93-.45-1.06.41-.21.9-.52,1.07-1.35.25-1.19-.6-1.52-1.53-1.52h-2.61l-1.2,5.64h.76l.51-2.42Z" fill="#fff"/>
                                                <path d="M91.93,9.75c.15-.87-.52-1.15-1.16-1.15-.48,0-1.32.13-1.5.99-.1.48.2.64.52.72l1.53.37c.69.17,1.15.61.96,1.51-.28,1.34-1.6,1.71-2.57,1.71-1.05,0-1.39-.31-1.59-.54-.39-.43-.38-.9-.27-1.43h.72c-.22,1.02.55,1.32,1.28,1.32.55,0,1.51-.14,1.68-.95.13-.59-.11-.78-.99-1l-1.1-.27c-.35-.09-1.13-.35-.92-1.33.19-.88.94-1.74,2.31-1.74,1.97,0,1.92,1.18,1.82,1.8h-.72Z" fill="#fff"/>
                                                <path d="M93.8,13.74h-.76l1.2-5.64h.76l-1.2,5.64Z" fill="#fff"/>
                                                <path d="M95.82,8.1h4.58l-.14.68h-1.91l-1.06,4.97h-.76l1.06-4.97h-1.91l.14-.68Z" fill="#fff"/>
                                                <path d="M102.31,13.74h-.76l.48-2.27-1.41-3.37h.89l1.04,2.71,2.2-2.71h.9l-2.85,3.37-.48,2.27Z" fill="#fff"/>
                                                <path d="M112.36,10.92c-.28,1.33-1.23,2.29-2.45,2.29s-1.76-.97-1.48-2.29c.28-1.33,1.23-2.29,2.45-2.29s1.76.97,1.48,2.29ZM113.15,10.92c.26-1.22-.01-2.97-2.12-2.97s-3.12,1.75-3.38,2.97c-.26,1.22.01,2.97,2.12,2.97s3.12-1.75,3.38-2.97Z" fill="#fff"/>
                                                <path d="M114.29,13.74h-.76l1.2-5.64h3.91l-.14.68h-3.14l-.37,1.73h2.77l-.14.68h-2.77l-.54,2.56Z" fill="#fff"/>
                                                <path d="M62.93,17.59h.74l-1.2,5.64h-.86l-1.9-4.56h-.02l-.97,4.56h-.74l1.2-5.64h.9l1.85,4.56h.02l.97-4.56Z" fill="#fff"/>
                                                <path d="M68.69,20.42c-.28,1.33-1.23,2.29-2.45,2.29s-1.76-.97-1.48-2.29c.28-1.33,1.23-2.29,2.45-2.29s1.76.97,1.48,2.29ZM69.48,20.42c.26-1.22-.01-2.97-2.12-2.97s-3.12,1.75-3.38,2.97c-.26,1.22.01,2.97,2.12,2.97s3.12-1.75,3.38-2.97Z" fill="#fff"/>
                                                <path d="M71.7,18.25h1.9c.38,0,1,.07.81.94-.18.83-.8.97-1.35.97h-1.77l.41-1.92ZM71.15,20.82h1.85c.91,0,.89.54.79,1.01-.04.21-.2,1.07-.17,1.41h.94l.03-.13c-.21-.13-.22-.25-.16-.57l.17-1.02c.14-.79-.16-.93-.45-1.06.41-.21.9-.52,1.07-1.35.25-1.19-.6-1.52-1.53-1.52h-2.61l-1.2,5.64h.76l.51-2.42Z" fill="#fff"/>
                                                <path d="M75.93,17.59h4.58l-.14.68h-1.91l-1.06,4.97h-.76l1.06-4.97h-1.91l.14-.68Z" fill="#fff"/>
                                                <path d="M84.94,17.59h.76l-1.2,5.64h-.76l.56-2.63h-2.95l-.56,2.63h-.76l1.2-5.64h.76l-.5,2.33h2.95l.5-2.33Z" fill="#fff"/>
                                                <path d="M89.94,23.24h-4.16l1.2-5.64h4.11l-.14.68h-3.35l-.37,1.73h3.09l-.14.68h-3.09l-.4,1.89h3.4l-.14.68Z" fill="#fff"/>
                                                <path d="M92.85,18.25h1.9c.38,0,1,.07.81.94-.18.83-.8.97-1.35.97h-1.77l.41-1.92ZM92.31,20.82h1.85c.91,0,.89.54.79,1.01-.04.21-.2,1.07-.17,1.41h.94l.03-.13c-.21-.13-.22-.25-.16-.57l.17-1.02c.14-.79-.16-.93-.45-1.06.41-.21.9-.52,1.07-1.35.25-1.19-.6-1.52-1.53-1.52h-2.61l-1.2,5.64h.76l.51-2.42Z" fill="#fff"/>
                                                <path d="M101.55,17.59h.74l-1.2,5.64h-.86l-1.9-4.56h-.02l-.97,4.56h-.74l1.2-5.64h.9l1.85,4.56h.02l.97-4.56Z" fill="#fff"/>
                                                <path d="M106.28,18.25h1.38c.85,0,1.11.3,1,.82-.15.69-.64.91-1.37.91h-1.38l.37-1.74ZM104.45,23.24h2.43c1.25,0,2.08-.76,2.27-1.67.21-.97-.39-1.23-.73-1.37.68-.29.93-.81,1-1.18.16-.77-.24-1.42-1.29-1.42h-2.48l-1.2,5.64ZM105.78,20.6h1.5c.62,0,1.29.16,1.12.95-.13.63-.62,1.03-1.41,1.03h-1.63l.42-1.98Z" fill="#fff"/>
                                                <path d="M111.63,18.25h1.9c.38,0,1,.07.81.94-.18.83-.8.97-1.35.97h-1.77l.41-1.92ZM111.08,20.82h1.85c.91,0,.89.54.79,1.01-.05.21-.2,1.07-.17,1.41h.94l.03-.13c-.21-.13-.22-.25-.16-.57l.17-1.02c.14-.79-.16-.93-.45-1.06.41-.21.9-.52,1.07-1.35.25-1.19-.6-1.52-1.53-1.52h-2.61l-1.2,5.64h.76l.51-2.42Z" fill="#fff"/>
                                                <path d="M116.26,23.24h-.76l1.2-5.64h.76l-1.2,5.64Z" fill="#fff"/>
                                                <path d="M118.28,17.59h4.58l-.14.68h-1.91l-1.06,4.97h-.76l1.06-4.97h-1.91l.14-.68Z" fill="#fff"/>
                                                <path d="M123.25,23.24h-.76l1.2-5.64h.76l-1.2,5.64Z" fill="#fff"/>
                                                <path d="M128.81,19.24c.15-.87-.52-1.15-1.15-1.15-.48,0-1.32.13-1.5.99-.1.48.2.64.52.72l1.53.37c.69.17,1.15.61.96,1.51-.28,1.34-1.6,1.71-2.57,1.71-1.05,0-1.39-.31-1.59-.54-.39-.43-.38-.9-.27-1.43h.72c-.22,1.02.55,1.32,1.28,1.32.55,0,1.51-.14,1.68-.95.13-.59-.11-.78-.99-1l-1.1-.27c-.35-.09-1.13-.35-.92-1.33.19-.88.94-1.74,2.31-1.74,1.97,0,1.92,1.18,1.82,1.8h-.72Z" fill="#fff"/>
                                                <path d="M134.71,17.59h.76l-1.2,5.64h-.76l.56-2.63h-2.95l-.56,2.63h-.76l1.2-5.64h.76l-.5,2.33h2.95l.5-2.33Z" fill="#fff"/>
                                                <path d="M142.45,19.29c0-.99-.79-1.17-1.33-1.17-1.02,0-2.01.75-2.32,2.24-.28,1.33-.03,2.35,1.37,2.35.5,0,1.4-.24,1.94-1.55h.74c-.77,2.13-2.52,2.22-2.94,2.22-1.28,0-2.36-.83-1.9-3,.37-1.74,1.61-2.94,3.26-2.94,1.45,0,2.02.9,1.93,1.85h-.74Z" fill="#fff"/>
                                                <path d="M148.35,20.42c-.28,1.33-1.23,2.29-2.45,2.29s-1.76-.97-1.48-2.29c.28-1.33,1.23-2.29,2.45-2.29s1.76.97,1.48,2.29ZM149.14,20.42c.26-1.22-.01-2.97-2.12-2.97s-3.12,1.75-3.38,2.97c-.26,1.22.01,2.97,2.12,2.97s3.12-1.75,3.38-2.97Z" fill="#fff"/>
                                                <path d="M150.35,22.56h2.86l-.14.68h-3.62l1.2-5.64h.76l-1.06,4.97Z" fill="#fff"/>
                                                <path d="M159.48,17.59l-.78,3.66c-.25,1.16-1.18,2.13-2.72,2.13s-1.96-.97-1.74-2.03l.8-3.76h.76l-.76,3.55c-.26,1.23.41,1.56,1.1,1.56s1.55-.32,1.81-1.55l.76-3.57h.76Z" fill="#fff"/>
                                                <path d="M164.13,23.24l.71-3.33c.03-.17.2-.88.31-1.41h-.02l-2.59,4.74h-.75l-.58-4.73h-.02c-.11.52-.25,1.23-.28,1.4l-.71,3.33h-.74l1.2-5.64h1.09l.6,4.77h.02l2.62-4.77h1.08l-1.2,5.64h-.74Z" fill="#fff"/>
                                                <path d="M167.84,18.25h1.38c.85,0,1.11.3,1,.82-.15.69-.64.91-1.37.91h-1.38l.37-1.74ZM166.02,23.24h2.43c1.25,0,2.08-.76,2.27-1.67.21-.97-.39-1.23-.73-1.37.68-.29.93-.81,1-1.18.16-.77-.24-1.42-1.29-1.42h-2.48l-1.2,5.64ZM167.34,20.6h1.5c.62,0,1.29.16,1.12.95-.13.63-.62,1.03-1.41,1.03h-1.63l.42-1.98Z" fill="#fff"/>
                                                <path d="M172.15,23.24h-.76l1.2-5.64h.76l-1.2,5.64Z" fill="#fff"/>
                                                <path d="M175.08,20.92l1.43-2.48h.02l.3,2.48h-1.75ZM176.96,21.59l.21,1.64h.83l-.84-5.64h-.86l-3.32,5.64h.79l.94-1.64h2.26Z" fill="#fff"/>
                                            </g>
                                        </g>
                                    </g>
                                </g>
                            </svg>